<svg width="20" height="20" viewBox="0 0 20 20" fill="none" xmlns="http://www.w3.org/2000/svg">
<path d="M9.9974 13.3337C10.8815 13.3337 11.7293 12.9825 12.3544 12.3573C12.9795 11.7322 13.3307 10.8844 13.3307 10.0003C13.3307 9.11627 12.9795 8.26842 12.3544 7.6433C11.7293 7.01818 10.8815 6.66699 9.9974 6.66699C9.11334 6.66699 8.26549 7.01818 7.64037 7.6433C7.01525 8.26842 6.66406 9.11627 6.66406 10.0003C6.66406 10.8844 7.01525 11.7322 7.64037 12.3573C8.26549 12.9825 9.11334 13.3337 9.9974 13.3337Z" stroke="black" stroke-width="1.5" stroke-linecap="round" stroke-linejoin="round"/>
<path d="M2.5 13.3333V6.66667C2.5 5.5616 2.93899 4.50179 3.72039 3.72039C4.50179 2.93899 5.5616 2.5 6.66667 2.5H13.3333C14.4384 2.5 15.4982 2.93899 16.2796 3.72039C17.061 4.50179 17.5 5.5616 17.5 6.66667V13.3333C17.5 14.4384 17.061 15.4982 16.2796 16.2796C15.4982 17.061 14.4384 17.5 13.3333 17.5H6.66667C5.5616 17.5 4.50179 17.061 3.72039 16.2796C2.93899 15.4982 2.5 14.4384 2.5 13.3333Z" stroke="black" stroke-width="1.5"/>
<path d="M14.5859 5.42674L14.5957 5.41602" stroke="black" stroke-width="2" stroke-linecap="round" stroke-linejoin="round"/>
</svg>
