<svg width="15" height="18" viewBox="0 0 15 18" fill="none" xmlns="http://www.w3.org/2000/svg">
<path d="M14.2705 4.30609C14.271 4.13521 14.2199 3.96763 14.1232 3.82588C14.0262 3.68368 13.8876 3.57397 13.7253 3.51289L13.7238 3.51232L7.79267 1.30156L7.79267 1.30155L7.79063 1.3008C7.71054 1.27135 7.62644 1.2545 7.54129 1.25082C7.4581 1.24063 7.37375 1.24317 7.29114 1.25843L7.24786 1.26642L7.20664 1.28185L1.2755 3.5026L1.27494 3.50281C1.10867 3.56529 0.967342 3.67877 0.870021 3.8258C0.774611 3.96995 0.725892 4.1396 0.729508 4.31162V9.14594H0.729465L0.729552 9.15254C0.744957 10.3203 1.06402 11.4636 1.65502 12.4669C2.24501 13.4685 3.08534 14.2953 4.09196 14.8635L7.07216 16.6371L7.07874 16.641L7.08544 16.6447C7.21215 16.715 7.35472 16.752 7.5 16.752C7.64528 16.752 7.78785 16.715 7.91456 16.6447L7.92126 16.641L7.92784 16.6371L10.908 14.8635C11.9147 14.2953 12.755 13.4685 13.345 12.4669C13.936 11.4636 14.255 10.3203 14.2704 9.15254L14.2705 9.15254V9.14594V4.30609ZM14.2705 4.30609C14.2705 4.30653 14.2705 4.30697 14.2705 4.30741L13.7705 4.30521M14.2705 4.30609V4.30521H13.7705M13.7705 4.30521V9.14594L7.38197 1.75011C7.42099 1.7429 7.46098 1.7429 7.5 1.75011C7.54022 1.7494 7.58022 1.75616 7.61803 1.77007L13.5492 3.98084C13.6144 4.00538 13.6706 4.04966 13.7102 4.10768C13.7497 4.16569 13.7708 4.23465 13.7705 4.30521ZM7.50432 17L7.50432 16.9999L7.49568 17C7.31068 17.0016 7.12839 16.9512 6.96892 16.8537L6.96895 16.8537L6.96337 16.8504L3.97813 15.0788L3.97817 15.0787L3.96973 15.0739C2.92932 14.4835 2.06004 13.6243 1.45045 12.5825C0.841272 11.5413 0.513243 10.355 0.5 9.14326L0.5 4.30542C0.5 4.30539 0.5 4.30537 0.5 4.30535C0.5 4.3053 0.5 4.30526 0.5 4.30521C0.500132 4.07954 0.568386 3.85996 0.694671 3.67602C0.820828 3.49227 0.998532 3.35326 1.20305 3.27639C1.20321 3.27633 1.20338 3.27627 1.20355 3.2762L7.13312 1.06603C7.1332 1.066 7.13328 1.06597 7.13336 1.06594C7.37019 0.978031 7.62973 0.978022 7.86657 1.06591C7.86667 1.06595 7.86678 1.06599 7.86688 1.06603L13.7965 3.2762C13.7966 3.27625 13.7967 3.2763 13.7968 3.27635C14.0014 3.35321 14.1791 3.49223 14.3053 3.67602C14.4316 3.85996 14.4999 4.07954 14.5 4.30521C14.5 4.30528 14.5 4.30535 14.5 4.30542V9.14324C14.4868 10.355 14.1587 11.5413 13.5495 12.5825C12.94 13.6243 12.0707 14.4835 11.0303 15.0739L11.0302 15.0738L11.0219 15.0788L8.03663 16.8504L8.03661 16.8503L8.03108 16.8537C7.87162 16.9512 7.68932 17.0016 7.50432 17Z" fill="black" stroke="black"/>
<path d="M6.95299 11.4673C6.80786 11.4664 6.66738 11.4153 6.55463 11.3226L4.45463 9.52604C4.32941 9.4195 4.25103 9.26684 4.23674 9.10166C4.22244 8.93647 4.2734 8.77229 4.3784 8.64523C4.4834 8.51817 4.63384 8.43864 4.79663 8.42413C4.95942 8.40963 5.12122 8.46133 5.24643 8.56788L6.89397 9.97518L9.70709 6.8312C9.81665 6.70811 9.96992 6.63423 10.1332 6.62581C10.2964 6.61738 10.4563 6.67511 10.5776 6.78629C10.6989 6.89747 10.7717 7.05299 10.78 7.21864C10.7883 7.38429 10.7314 7.54651 10.6218 7.6696L7.43496 11.2627C7.37394 11.3301 7.29927 11.3833 7.21607 11.4186C7.13287 11.4539 7.04312 11.4706 6.95299 11.4673Z" fill="black"/>
</svg>
