<svg width="18" height="16" viewBox="0 0 18 16" fill="none" xmlns="http://www.w3.org/2000/svg">
<g id="like-1--reward-social-up-rating-media-like-thumb-hand">
<path id="Vector_2" d="M1.61553 6.58203H4.53307V14.27H1.61553C1.45228 14.27 1.29572 14.2058 1.18028 14.0915C1.06485 13.9773 1 13.8224 1 13.6608V7.19117C1 7.02962 1.06485 6.87468 1.18028 6.76044C1.29572 6.64621 1.45228 6.58203 1.61553 6.58203Z" stroke="black" stroke-width="1.5" stroke-linecap="round" stroke-linejoin="round"/>
<path id="Vector_4" d="M4.52441 6.58135L7.65168 1.63455C7.77287 1.4389 7.94324 1.27768 8.14616 1.16661C8.34909 1.05555 8.57764 0.998437 8.80952 1.00085C8.99183 0.994448 9.1736 1.02424 9.34409 1.08847C9.51458 1.15271 9.67035 1.25008 9.80221 1.37484C9.93407 1.49961 10.0393 1.64924 10.1118 1.81492C10.1843 1.98059 10.2225 2.15895 10.2242 2.33948V5.88501H15.6299C15.8297 5.89129 16.0259 5.93939 16.2056 6.02616C16.3852 6.11292 16.5442 6.23638 16.6721 6.38839C16.8001 6.54039 16.894 6.7175 16.9477 6.90805C17.0014 7.09859 17.0138 7.29823 16.9839 7.49383L15.9998 13.7805C15.9577 14.1164 15.7932 14.4256 15.537 14.65C15.2808 14.8743 14.9507 14.9983 14.6086 14.9988H6.53108C6.14637 15 5.76788 14.9128 5.42412 14.7433L4.53682 14.3049" stroke="black" stroke-width="1.5" stroke-linecap="round" stroke-linejoin="round"/>
</g>
</svg>
